<svg xmlns="http://www.w3.org/2000/svg" viewBox="0 0 1000 700" role="img" aria-labelledby="title desc">
  <title id="title">Original kitchen family illustration for Darren Johnson</title>
  <desc id="desc">A cozy original vector illustration of a man with his family cooking together in a kitchen.</desc>
  <rect width="1000" height="700" rx="56" fill="#f8fafc"/>
  <rect x="0" y="0" width="1000" height="330" fill="#dbeafe"/>
  <rect x="88" y="92" width="824" height="92" rx="20" fill="#ffffff"/>
  <rect x="120" y="210" width="760" height="360" rx="34" fill="#fde68a"/>
  <rect x="164" y="264" width="672" height="250" rx="28" fill="#fff7ed"/>
  <circle cx="500" cy="268" r="60" fill="#b77952"/>
  <path d="M440 260c8-64 44-98 72-98 44 0 74 38 76 98-44-6-82-22-112-48-8 20-20 36-36 48z" fill="#111827"/>
  <rect x="438" y="332" width="128" height="156" rx="46" fill="#22c55e"/>
  <path d="M468 332l34 52 34-52" fill="#dcfce7"/>
  <circle cx="350" cy="318" r="50" fill="#8d5524"/>
  <path d="M302 312c8-52 34-82 58-82 36 0 62 30 64 82-36-4-68-18-92-38-8 16-16 28-30 38z" fill="#1f2937"/>
  <rect x="302" y="376" width="112" height="128" rx="38" fill="#f97316"/>
  <circle cx="650" cy="326" r="48" fill="#f2c6a0"/>
  <path d="M604 318c8-50 34-78 58-78 34 0 58 30 60 78-36-4-66-18-90-38-8 16-16 28-28 38z" fill="#78350f"/>
  <rect x="604" y="382" width="108" height="122" rx="38" fill="#6366f1"/>
  <circle cx="755" cy="388" r="36" fill="#f2c6a0"/>
  <path d="M722 382c6-38 26-58 44-58 26 0 44 22 46 58-28-4-50-12-68-28-6 12-12 22-22 28z" fill="#92400e"/>
  <rect x="716" y="430" width="80" height="82" rx="28" fill="#06b6d4"/>
  <ellipse cx="500" cy="530" rx="130" ry="28" fill="#fed7aa"/>
  <circle cx="500" cy="530" r="38" fill="#fb923c"/>
  <path d="M466 528c20-24 48-24 70 0" fill="none" stroke="#f97316" stroke-width="12" stroke-linecap="round"/>
  <circle cx="482" cy="288" r="7" fill="#111827"/><circle cx="522" cy="288" r="7" fill="#111827"/>
  <path d="M482 314c16 10 34 10 50 0" fill="none" stroke="#7c2d12" stroke-width="6" stroke-linecap="round"/>
  <circle cx="632" cy="344" r="6" fill="#111827"/><circle cx="668" cy="344" r="6" fill="#111827"/>
  <path d="M632 368c14 9 28 9 42 0" fill="none" stroke="#9f1239" stroke-width="6" stroke-linecap="round"/>
</svg>
