<svg xmlns="http://www.w3.org/2000/svg" viewBox="0 0 800 800" role="img" aria-labelledby="title desc">
  <title id="title">Original illustrated portrait of Renee Carter</title>
  <desc id="desc">A stylized original vector portrait of a woman with shoulder length dark hair on a soft indigo background.</desc>
  <rect width="800" height="800" rx="96" fill="#eef2ff"/>
  <circle cx="400" cy="330" r="220" fill="#c7d2fe"/>
  <path d="M232 728c24-132 100-208 168-208s144 76 168 208H232z" fill="#6366f1"/>
  <path d="M254 308c0-128 68-214 154-214 88 0 152 84 152 214 0 88-34 170-76 208-24 22-52 34-84 34s-60-12-84-34c-42-38-62-120-62-208z" fill="#312e81"/>
  <path d="M292 344c0-78 48-142 108-142s108 64 108 142c0 92-48 154-108 154s-108-62-108-154z" fill="#f2c6a0"/>
  <path d="M274 338c16-92 64-150 130-150 58 0 106 58 124 150-62-4-116-28-162-72-22 34-52 58-92 72z" fill="#1f2937"/>
  <circle cx="356" cy="362" r="10" fill="#111827"/>
  <circle cx="444" cy="362" r="10" fill="#111827"/>
  <path d="M364 426c24 20 48 20 72 0" fill="none" stroke="#9f1239" stroke-width="10" stroke-linecap="round"/>
  <path d="M320 560h160l38 168H282l38-168z" fill="#818cf8"/>
  <circle cx="286" cy="454" r="34" fill="#f2c6a0"/>
  <circle cx="514" cy="454" r="34" fill="#f2c6a0"/>
</svg>
